<svg xmlns="http://www.w3.org/2000/svg" viewBox="0 0 64 64">
  <rect width="64" height="64" rx="16" fill="#0b3d2e"/>
  <path d="M8 46 21 29l8 9 10-17 17 25H8Z" fill="#2f765a"/>
  <path d="m10 46 11-17 8 9 10-17 15 25" fill="none" stroke="#f8fbf8" stroke-linecap="round" stroke-linejoin="round" stroke-width="4"/>
  <path d="M13 50c9-4 18-4 28 0" fill="none" stroke="#9ee1bf" stroke-dasharray="2 5" stroke-linecap="round" stroke-width="3"/>
  <path d="M42 13c0-5 4-9 9-9s9 4 9 9c0 7-9 15-9 15s-9-8-9-15Z" fill="#9ee1bf"/>
  <circle cx="51" cy="13" r="3" fill="#0b3d2e"/>
  <path d="M41 49c7-1 10-5 10-11" fill="none" stroke="#d9aa70" stroke-linecap="round" stroke-width="3"/>
</svg>
